# xmcd
# 
# Track frame offsets:
#     150
#     4803
#     16651
#     29157
#     41745
#     45455
#     60027
#     73038
#     83183
#     87077
#     100004
#     110935
#     122626
#     133833
#     147048
#     150461
#     166392
#     186036
#     197286
# 
# Disc length: 2653
# 
# Revision: 0
# Processed by: cddbd v1.5.2PL0 Copyright (c) Steve Scherf et al.
# Submitted via: BonkEnc v1.0.15
# 
DISCID=f00a5b13
DTITLE=JOHN LEE HOOKER - This Is Hip!
DYEAR=0
DGENRE=Blues
TTITLE0=talking 'bout his roots
TTITLE1=Boogie Chillun
TTITLE2=I'm In The Mood
TTITLE3=Crawlin' King Snake
TTITLE4=talking 'bout Boogie Chillen
TTITLE5=Sugar Mama
TTITLE6=Unfriendly Woman
TTITLE7=Dimples
TTITLE8=talking 'bout T-Bone Walker
TTITLE9=Mr. Lucky
TTITLE10=No Shoes
TTITLE11=Solid Sender
TTITLE12=This Is Hip
TTITLE13=Don't Look Back
TTITLE14=talking 'bout British Rock
TTITLE15=It Serves Me Right To Suffer
TTITLE16=Shake It Baby
TTITLE17=Boom Boom
TTITLE18=talking 'bout the blues
EXTD=Blues and Soul Records Vol.41
EXTT0=
EXTT1=
EXTT2=
EXTT3=
EXTT4=
EXTT5=
EXTT6=
EXTT7=
EXTT8=
EXTT9=
EXTT10=
EXTT11=
EXTT12=
EXTT13=
EXTT14=
EXTT15=
EXTT16=
EXTT17=
EXTT18=
PLAYORDER=
